<?xml version="1.0" encoding="utf-8"?>
<!-- Generator: Adobe Illustrator 14.0.0, SVG Export Plug-In . SVG Version: 6.00 Build 43363)  -->
<!DOCTYPE svg PUBLIC "-//W3C//DTD SVG 1.1//EN" "http://www.w3.org/Graphics/SVG/1.1/DTD/svg11.dtd">
<svg version="1.1" id="Layer_1" xmlns="http://www.w3.org/2000/svg" xmlns:xlink="http://www.w3.org/1999/xlink" x="0px" y="0px"
	  viewBox="0 0 40 40" enable-background="new 0 0 40 40" xml:space="preserve">
<g>
	<path d="M33.125,35H6.875c-0.519,0-0.938-0.421-0.938-0.938v-5.75c0-0.519,0.419-0.938,0.938-0.938c0.518,0,0.938,0.42,0.938,0.938
		v4.813h24.375v-4.813c0-0.519,0.419-0.938,0.938-0.938c0.518,0,0.938,0.42,0.938,0.938v5.75C34.063,34.579,33.643,35,33.125,35"/>
	<path d="M27.576,14.153c-0.234,0-0.47-0.087-0.651-0.264L20.041,7.24l-6.884,6.649c-0.371,0.36-0.965,0.351-1.325-0.021
		c-0.359-0.374-0.349-0.966,0.024-1.326l7.535-7.277c0.362-0.354,0.939-0.354,1.301,0l7.535,7.277
		c0.373,0.36,0.383,0.952,0.023,1.326C28.065,14.057,27.821,14.153,27.576,14.153"/>
	<path d="M20.041,29.248c-0.518,0-0.937-0.42-0.937-0.937V5.937C19.104,5.421,19.523,5,20.041,5c0.519,0,0.938,0.421,0.938,0.937
		v22.375C20.979,28.828,20.56,29.248,20.041,29.248"/>
</g>
</svg>
